<?xml version="1.0" encoding="utf-8"?>
<!-- Generator: Adobe Illustrator 25.4.1, SVG Export Plug-In . SVG Version: 6.00 Build 0)  -->
<svg version="1.1" id="Livello_1" xmlns="http://www.w3.org/2000/svg" xmlns:xlink="http://www.w3.org/1999/xlink" x="0px" y="0px"
	 viewBox="0 0 600 250" style="enable-background:new 0 0 600 250;" xml:space="preserve">
<style type="text/css">
	.st0{clip-path:url(#SVGID_00000026875906727361746890000004755557143389058463_);fill:#00D5CA;}
	.st1{clip-path:url(#SVGID_00000098218980086772062480000003005051685305700514_);fill:#00D5CA;}
	.st2{clip-path:url(#SVGID_00000059270089956114006110000001953940727903623081_);fill:#00D5CA;}
	.st3{clip-path:url(#SVGID_00000033370582389327789710000006636607312897511077_);fill:#181E9C;}
	.st4{clip-path:url(#SVGID_00000023242471937509735500000011691028114194625201_);fill:#181E9C;}
	.st5{clip-path:url(#SVGID_00000163048844534121403200000009257813109338034822_);fill:#181E9C;}
	.st6{clip-path:url(#SVGID_00000130642990180193570640000018102388860684759973_);fill:#181E9C;}
	.st7{clip-path:url(#SVGID_00000060743339525975623400000017708142313326517658_);fill:#181E9C;}
	.st8{clip-path:url(#SVGID_00000067205160860487345920000013463791057622610877_);fill:#181E9C;}
	.st9{fill:#181E9C;}
	.st10{font-family:'Poppins-Regular';}
	.st11{font-size:41.8165px;}
	.st12{letter-spacing:8;}
</style>
<g>
	<g>
		<defs>
			<rect id="SVGID_1_" x="92.2" y="24.8" width="434.2" height="111.9"/>
		</defs>
		<clipPath id="SVGID_00000181079876172237718460000009953326375187998623_">
			<use xlink:href="#SVGID_1_"  style="overflow:visible;"/>
		</clipPath>
		<path style="clip-path:url(#SVGID_00000181079876172237718460000009953326375187998623_);fill:#00D5CA;" d="M130.4,92.1l-9.8-3.7
			c-1.4-0.5-2.9,0.5-2.9,2v4.8v4.8c0,1.5,1.5,2.6,2.9,2l9.8-3.7l9.8,3.7c1.4,0.5,2.9-0.5,2.9-2v-4.8v-4.8c0-1.5-1.5-2.6-2.9-2
			L130.4,92.1z"/>
	</g>
	<g>
		<defs>
			<rect id="SVGID_00000023987435410520213130000017207524884342970756_" x="92.2" y="24.8" width="434.2" height="111.9"/>
		</defs>
		<clipPath id="SVGID_00000133491540690021713970000013001145177830556601_">
			<use xlink:href="#SVGID_00000023987435410520213130000017207524884342970756_"  style="overflow:visible;"/>
		</clipPath>
		<polygon style="clip-path:url(#SVGID_00000133491540690021713970000013001145177830556601_);fill:#00D5CA;" points="503.5,65.9 
			503.5,55.4 496.7,65.9 		"/>
	</g>
	<g>
		<defs>
			<rect id="SVGID_00000176008339740778724100000015259533806311430327_" x="92.2" y="24.8" width="434.2" height="111.9"/>
		</defs>
		<clipPath id="SVGID_00000030466074956869833790000013055854474440035240_">
			<use xlink:href="#SVGID_00000176008339740778724100000015259533806311430327_"  style="overflow:visible;"/>
		</clipPath>
		<path style="clip-path:url(#SVGID_00000030466074956869833790000013055854474440035240_);fill:#00D5CA;" d="M526.3,25h-36.6
			c-20.2,0-36.7,16.4-36.7,36.7v36.7c0,0,0,0.1,0.1,0.1h36.6c20.2,0,36.7-16.4,36.7-36.7L526.3,25C526.4,25,526.4,25,526.3,25
			 M488.4,76.2h-21c0-5.4,3-10,5.3-12.2c2.4-2.3,6.8-5.5,7.5-6.1c1.3-1.1,1.9-3.9-0.7-5.1c-2.2-1.1-5.2,0.6-6.8,3
			c-0.3-0.3-4.5-3.1-4.5-3.1c2.3-4.4,7.4-5.8,10.5-5.8c3.1,0,8,1.9,8.9,6.8c1,5.1-3.6,8.4-5.5,9.8c-1.8,1.4-6,4.2-6,6.8h12.1
			L488.4,76.2L488.4,76.2z M512,71.1h-2.5v5.1h-6V71h-12.6v-5l12.2-18.2h6.4v18.1h2.5V71.1z"/>
	</g>
	<g>
		<defs>
			<rect id="SVGID_00000121281574209873701100000010171851228136160666_" x="92.2" y="24.8" width="434.2" height="111.9"/>
		</defs>
		<clipPath id="SVGID_00000024690685477489222330000018075412621700222368_">
			<use xlink:href="#SVGID_00000121281574209873701100000010171851228136160666_"  style="overflow:visible;"/>
		</clipPath>
		<path style="clip-path:url(#SVGID_00000024690685477489222330000018075412621700222368_);fill:#181E9C;" d="M317,60.2
			c-21.1,0-38.3,17.1-38.3,38.3s17.1,38.3,38.3,38.3c16.5,0,30.6-10.5,35.9-25.1h-16c-4.3,6.5-11.6,10.8-20,10.8
			c-12.1,0-22-8.9-23.7-20.5h47.3h11.8h2.7c0.1-1.1,0.2-2.2,0.2-3.4C355.2,77.3,338.1,60.2,317,60.2 M294.4,90.7
			c3.2-9.4,12.1-16.1,22.6-16.1c10.5,0,19.4,6.7,22.6,16.1H294.4z"/>
	</g>
	<g>
		<defs>
			<rect id="SVGID_00000067925396257637826490000000457080987175790978_" x="92.2" y="24.8" width="434.2" height="111.9"/>
		</defs>
		<clipPath id="SVGID_00000106838755874229586090000012701059708867757495_">
			<use xlink:href="#SVGID_00000067925396257637826490000000457080987175790978_"  style="overflow:visible;"/>
		</clipPath>
		<path style="clip-path:url(#SVGID_00000106838755874229586090000012701059708867757495_);fill:#181E9C;" d="M438.6,24.8
			L438.6,24.8c-7.9,0-14.4,6.4-14.4,14.4v29.4c-7.2-5.8-16.5-9-26.5-8.4C377.9,61.5,362.2,78,362,97.9c-0.3,21.4,17,38.8,38.3,38.8
			c21,0,38-16.9,38.3-37.8h0.1L438.6,24.8L438.6,24.8z M400.3,122.3c-13.2,0-23.9-10.7-23.9-23.9s10.7-23.9,23.9-23.9
			s23.9,10.7,23.9,23.9S413.5,122.3,400.3,122.3"/>
	</g>
	<g>
		<defs>
			<rect id="SVGID_00000047031687669160816430000000133839038985427626_" x="92.2" y="24.8" width="434.2" height="111.9"/>
		</defs>
		<clipPath id="SVGID_00000176740857512554013720000005826505603215663038_">
			<use xlink:href="#SVGID_00000047031687669160816430000000133839038985427626_"  style="overflow:visible;"/>
		</clipPath>
		<path style="clip-path:url(#SVGID_00000176740857512554013720000005826505603215663038_);fill:#181E9C;" d="M179.3,136.7h14.4
			V39.4c0-7.9-6.4-14.3-14.4-14.3C179.3,25.1,179.3,136.7,179.3,136.7z"/>
	</g>
	<g>
		<defs>
			<rect id="SVGID_00000078751345998280887270000015432886858061271178_" x="92.2" y="24.8" width="434.2" height="111.9"/>
		</defs>
		<clipPath id="SVGID_00000170277129856216879070000001151102790007749775_">
			<use xlink:href="#SVGID_00000078751345998280887270000015432886858061271178_"  style="overflow:visible;"/>
		</clipPath>
		<path style="clip-path:url(#SVGID_00000170277129856216879070000001151102790007749775_);fill:#181E9C;" d="M208.5,46.1v17.2h-6.5
			v13.2h6.5v60.2h14.4V76.5h12.8V63.3h-12.8V49.6c0-7.8,5.5-11.7,10.6-11.7h2.1V25h-6.4C218.6,25,208.5,33,208.5,46.1"/>
	</g>
	<g>
		<defs>
			<rect id="SVGID_00000098921474562989559550000017109492366150341281_" x="92.2" y="24.8" width="434.2" height="111.9"/>
		</defs>
		<clipPath id="SVGID_00000178900270577499781760000011635165191839354553_">
			<use xlink:href="#SVGID_00000098921474562989559550000017109492366150341281_"  style="overflow:visible;"/>
		</clipPath>
		<path style="clip-path:url(#SVGID_00000178900270577499781760000011635165191839354553_);fill:#181E9C;" d="M258.8,68.3v-5h-14.4
			v73.4h14.4V92c0-11.1,11.8-16.1,18.3-16.1V61.8C277.1,61.8,267.3,60.7,258.8,68.3"/>
	</g>
	<g>
		<defs>
			<rect id="SVGID_00000034792487505139255460000000575899274009512880_" x="92.2" y="24.8" width="434.2" height="111.9"/>
		</defs>
		<clipPath id="SVGID_00000032615096900120658030000008946458207954530187_">
			<use xlink:href="#SVGID_00000034792487505139255460000000575899274009512880_"  style="overflow:visible;"/>
		</clipPath>
		<path style="clip-path:url(#SVGID_00000032615096900120658030000008946458207954530187_);fill:#181E9C;" d="M130.5,60.2
			c-21.2,0-38.3,17.1-38.3,38.3c0,21.2,17.1,38.3,38.3,38.3l38.3-0.1l0.1-38.2C168.8,77.3,151.7,60.2,130.5,60.2 M154.4,97.7l0,24.6
			l-24.6,0v0c-12.9-0.4-23.2-10.9-23.2-23.9c0-13.2,10.7-23.9,23.9-23.9C143.5,74.5,154,84.9,154.4,97.7L154.4,97.7z"/>
	</g>
</g>
<text transform="matrix(1 0 0 1 152.9995 184.3008)" class="st9 st10 st11 st12">shipping</text>
</svg>
